<?xml version="1.0" encoding="UTF-8" standalone="no"?>
<!-- Created with Inkscape (http://www.inkscape.org/) -->

<svg
   xmlns:dc="http://purl.org/dc/elements/1.1/"
   xmlns:cc="http://creativecommons.org/ns#"
   xmlns:rdf="http://www.w3.org/1999/02/22-rdf-syntax-ns#"
   xmlns:svg="http://www.w3.org/2000/svg"
   xmlns="http://www.w3.org/2000/svg"
   xmlns:sodipodi="http://sodipodi.sourceforge.net/DTD/sodipodi-0.dtd"
   xmlns:inkscape="http://www.inkscape.org/namespaces/inkscape"
   width="166.8974mm"
   height="166.89705mm"
   viewBox="0 0 166.8974 166.89705"
   version="1.1"
   id="svg579"
   inkscape:version="0.92.4 (5da689c313, 2019-01-14)"
   sodipodi:docname="codepen.svg">
  <defs
     id="defs573">
    <clipPath
       id="clipPath5137"
       clipPathUnits="userSpaceOnUse">
      <path
         inkscape:connector-curvature="0"
         id="path5135"
         d="M 0,500 H 500 V 0 H 0 Z" />
    </clipPath>
  </defs>
  <sodipodi:namedview
     id="base"
     pagecolor="#ffffff"
     bordercolor="#666666"
     borderopacity="1.0"
     inkscape:pageopacity="0.0"
     inkscape:pageshadow="2"
     inkscape:zoom="0.49497475"
     inkscape:cx="-91.372681"
     inkscape:cy="390.66922"
     inkscape:document-units="mm"
     inkscape:current-layer="layer1"
     showgrid="false"
     inkscape:window-width="1366"
     inkscape:window-height="715"
     inkscape:window-x="-8"
     inkscape:window-y="194"
     inkscape:window-maximized="1" />
  <metadata
     id="metadata576">
    <rdf:RDF>
      <cc:Work
         rdf:about="">
        <dc:format>image/svg+xml</dc:format>
        <dc:type
           rdf:resource="http://purl.org/dc/dcmitype/StillImage" />
        <dc:title></dc:title>
      </cc:Work>
    </rdf:RDF>
  </metadata>
  <g
     inkscape:label="Layer 1"
     inkscape:groupmode="layer"
     id="layer1"
     transform="translate(-54.195883,-32.24252)">
    <g
       transform="matrix(0.35277777,0,0,-0.35277777,49.071751,204.69631)"
       inkscape:label="Button-Fill-Black"
       id="g5105">
      <g
         transform="translate(129.9512,273.332)"
         id="g5107">
        <path
           inkscape:connector-curvature="0"
           id="path5109"
           style="fill:#191919;fill-opacity:1;fill-rule:nonzero;stroke:none"
           d="m 0,0 v -42.071 l 31.45,21.035 z" />
      </g>
      <g
         transform="translate(238.5024,303.8696)"
         id="g5111">
        <path
           inkscape:connector-curvature="0"
           id="path5113"
           style="fill:#191919;fill-opacity:1;fill-rule:nonzero;stroke:none"
           d="m 0,0 v 58.628 l -98.487,-65.653 43.994,-29.43 z" />
      </g>
      <g
         transform="translate(362.1309,296.8447)"
         id="g5115">
        <path
           inkscape:connector-curvature="0"
           id="path5117"
           style="fill:#191919;fill-opacity:1;fill-rule:nonzero;stroke:none"
           d="M 0,0 -98.488,65.653 V 7.025 l 54.497,-36.455 z" />
      </g>
      <g
         transform="translate(140.0151,207.748)"
         id="g5119">
        <path
           inkscape:connector-curvature="0"
           id="path5121"
           style="fill:#191919;fill-opacity:1;fill-rule:nonzero;stroke:none"
           d="M 0,0 98.487,-65.653 V -7.024 L 43.995,29.422 Z" />
      </g>
      <g
         transform="translate(263.6426,200.7236)"
         id="g5123">
        <path
           inkscape:connector-curvature="0"
           id="path5125"
           style="fill:#191919;fill-opacity:1;fill-rule:nonzero;stroke:none"
           d="M 0,0 V -58.629 L 98.488,7.024 54.497,36.446 Z" />
      </g>
      <g
         transform="translate(251.0713,282.0337)"
         id="g5127">
        <path
           inkscape:connector-curvature="0"
           id="path5129"
           style="fill:#191919;fill-opacity:1;fill-rule:nonzero;stroke:none"
           d="M 0,0 -44.457,-29.737 0,-59.475 44.46,-29.737 Z" />
      </g>
      <g
         id="g5131">
        <g
           clip-path="url(#clipPath5137)"
           id="g5133">
          <g
             transform="translate(397.3311,207.7324)"
             id="g5139">
            <path
               inkscape:connector-curvature="0"
               id="path5141"
               style="fill:#191919;fill-opacity:1;fill-rule:nonzero;stroke:none"
               d="m 0,0 c 0,-0.554 -0.039,-1.1 -0.112,-1.646 -0.027,-0.177 -0.07,-0.362 -0.1,-0.539 -0.065,-0.354 -0.127,-0.708 -0.22,-1.054 -0.053,-0.208 -0.13,-0.407 -0.196,-0.608 -0.1,-0.307 -0.199,-0.616 -0.322,-0.924 -0.085,-0.207 -0.19,-0.407 -0.281,-0.607 -0.135,-0.285 -0.274,-0.561 -0.427,-0.839 -0.113,-0.192 -0.239,-0.385 -0.359,-0.577 -0.169,-0.262 -0.341,-0.516 -0.53,-0.762 -0.139,-0.192 -0.281,-0.369 -0.434,-0.546 -0.197,-0.23 -0.405,-0.461 -0.624,-0.676 -0.166,-0.17 -0.328,-0.339 -0.5,-0.493 -0.227,-0.208 -0.469,-0.408 -0.715,-0.6 -0.186,-0.147 -0.37,-0.293 -0.567,-0.431 -0.072,-0.047 -0.137,-0.108 -0.211,-0.154 l -133.687,-89.128 c -2.112,-1.408 -4.54,-2.115 -6.975,-2.115 -2.427,0 -4.859,0.707 -6.971,2.115 l -133.691,89.128 c -0.07,0.046 -0.135,0.107 -0.204,0.154 -0.197,0.138 -0.385,0.284 -0.57,0.431 -0.246,0.192 -0.485,0.392 -0.712,0.6 -0.173,0.154 -0.338,0.323 -0.504,0.493 -0.219,0.215 -0.422,0.446 -0.627,0.676 -0.146,0.177 -0.292,0.354 -0.43,0.546 -0.185,0.246 -0.362,0.5 -0.528,0.762 -0.127,0.192 -0.246,0.385 -0.361,0.577 -0.154,0.278 -0.292,0.554 -0.427,0.839 -0.096,0.2 -0.193,0.4 -0.281,0.607 -0.123,0.308 -0.227,0.617 -0.323,0.924 -0.069,0.201 -0.138,0.4 -0.196,0.608 -0.093,0.346 -0.154,0.7 -0.22,1.054 -0.03,0.177 -0.076,0.362 -0.1,0.539 -0.073,0.546 -0.115,1.092 -0.115,1.646 v 89.128 c 0,0.554 0.042,1.1 0.115,1.639 0.024,0.184 0.07,0.361 0.1,0.546 0.066,0.354 0.127,0.708 0.22,1.054 0.058,0.208 0.127,0.408 0.196,0.608 0.096,0.308 0.2,0.615 0.323,0.916 0.088,0.207 0.185,0.415 0.281,0.615 0.135,0.285 0.273,0.562 0.427,0.831 0.115,0.2 0.234,0.392 0.361,0.585 0.166,0.261 0.343,0.515 0.528,0.762 0.138,0.184 0.284,0.369 0.43,0.545 0.205,0.231 0.408,0.462 0.627,0.678 0.166,0.169 0.331,0.338 0.504,0.492 0.227,0.208 0.466,0.408 0.712,0.601 0.185,0.146 0.373,0.292 0.57,0.43 0.069,0.047 0.134,0.108 0.204,0.154 l 133.691,89.128 c 4.224,2.816 9.721,2.816 13.946,0 L -5.598,99.584 c 0.074,-0.046 0.139,-0.107 0.211,-0.154 0.197,-0.138 0.381,-0.284 0.567,-0.43 0.246,-0.193 0.488,-0.393 0.715,-0.601 0.172,-0.154 0.334,-0.323 0.5,-0.492 0.219,-0.216 0.427,-0.447 0.624,-0.678 0.153,-0.176 0.295,-0.361 0.434,-0.545 0.189,-0.247 0.361,-0.501 0.53,-0.762 0.12,-0.193 0.246,-0.385 0.359,-0.585 0.153,-0.269 0.292,-0.546 0.427,-0.831 0.091,-0.2 0.196,-0.408 0.281,-0.615 0.123,-0.301 0.222,-0.608 0.322,-0.916 0.066,-0.2 0.143,-0.4 0.196,-0.608 0.093,-0.346 0.155,-0.7 0.22,-1.054 0.03,-0.185 0.073,-0.362 0.1,-0.546 C -0.039,90.228 0,89.682 0,89.128 Z m -146.26,281.113 c -130.637,0 -236.546,-105.905 -236.546,-236.549 0,-130.645 105.909,-236.545 236.546,-236.545 130.645,0 236.549,105.9 236.549,236.545 0,130.644 -105.904,236.549 -236.549,236.549" />
          </g>
          <g
             transform="translate(372.1943,231.2607)"
             id="g5143">
            <path
               inkscape:connector-curvature="0"
               id="path5145"
               style="fill:#191919;fill-opacity:1;fill-rule:nonzero;stroke:none"
               d="M 0,0 V 42.071 L -31.445,21.036 Z" />
          </g>
        </g>
      </g>
    </g>
  </g>
</svg>
