<?xml version="1.0" encoding="UTF-8" standalone="no"?>
<!-- Created with Inkscape (http://www.inkscape.org/) -->

<svg
   xmlns:dc="http://purl.org/dc/elements/1.1/"
   xmlns:cc="http://creativecommons.org/ns#"
   xmlns:rdf="http://www.w3.org/1999/02/22-rdf-syntax-ns#"
   xmlns:svg="http://www.w3.org/2000/svg"
   xmlns="http://www.w3.org/2000/svg"
   xmlns:sodipodi="http://sodipodi.sourceforge.net/DTD/sodipodi-0.dtd"
   xmlns:inkscape="http://www.inkscape.org/namespaces/inkscape"
   width="86.20475mm"
   height="58.398849mm"
   viewBox="0 0 86.20475 58.398849"
   version="1.1"
   id="svg8"
   inkscape:version="0.92.4 (5da689c313, 2019-01-14)"
   sodipodi:docname="jsfiddle.svg">
  <defs
     id="defs2" />
  <sodipodi:namedview
     id="base"
     pagecolor="#ffffff"
     bordercolor="#666666"
     borderopacity="1.0"
     inkscape:pageopacity="0.0"
     inkscape:pageshadow="2"
     inkscape:zoom="0.98994949"
     inkscape:cx="438.47794"
     inkscape:cy="94.452155"
     inkscape:document-units="mm"
     inkscape:current-layer="layer1"
     showgrid="false"
     inkscape:window-width="1440"
     inkscape:window-height="847"
     inkscape:window-x="1358"
     inkscape:window-y="-8"
     inkscape:window-maximized="1" />
  <metadata
     id="metadata5">
    <rdf:RDF>
      <cc:Work
         rdf:about="">
        <dc:format>image/svg+xml</dc:format>
        <dc:type
           rdf:resource="http://purl.org/dc/dcmitype/StillImage" />
        <dc:title></dc:title>
      </cc:Work>
    </rdf:RDF>
  </metadata>
  <g
     inkscape:label="Layer 1"
     inkscape:groupmode="layer"
     id="layer1"
     transform="translate(-29.78718,-112.97443)">
    <path
       style="fill:#191919;fill-opacity:1;stroke-width:0.26458335"
       d="m 44.59034,171.21524 c -5.225504,-0.87375 -10.584797,-4.86211 -12.932302,-9.62417 -2.489337,-5.04977 -2.49452,-10.25085 -0.01523,-15.28062 1.114619,-2.26123 3.767818,-5.41768 5.329187,-6.34 0.74744,-0.44153 0.762896,-0.49436 0.597256,-2.04155 -0.6497,-6.06861 3.903019,-12.08205 10.126613,-13.3757 2.214607,-0.46033 5.167479,-0.1867 7.332562,0.67947 1.472517,0.5891 1.845588,0.65559 2.015247,0.35918 1.301543,-2.27393 4.808921,-6.02947 7.258124,-7.77168 6.262641,-4.45484 14.512971,-5.9536 22.095747,-4.01393 8.507059,2.1761 15.471516,8.48869 18.214176,16.50933 0.65728,1.92218 1.36196,5.73186 1.36196,7.36319 0,1.1077 0.0386,1.15834 1.52135,1.99507 3.35869,1.89536 6.72093,6.18925 7.85239,10.02823 2.64522,8.9751 -3.11709,18.78829 -12.43132,21.17047 -1.98991,0.50894 -2.923819,0.52424 -29.859229,0.48934 -15.292792,-0.0198 -28.102732,-0.0858 -28.466534,-0.14663 z m 57.50869,-2.88259 c 8.40349,-2.16802 13.15466,-10.68829 10.39121,-18.63458 -1.22691,-3.52796 -3.44253,-6.04574 -7.10471,-8.07363 l -1.9254,-1.06616 -0.18754,-2.638 c -0.27443,-3.86019 -0.88155,-6.27727 -2.32408,-9.25259 -2.266888,-4.67565 -5.713787,-8.12901 -10.452959,-10.47256 -6.179154,-3.05564 -12.695976,-3.40168 -19.269214,-1.02321 -4.526415,1.63785 -9.383033,5.64421 -11.825153,9.75491 -1.486826,2.5027 -1.769502,2.63527 -3.509034,1.6457 -2.083906,-1.18548 -4.204555,-1.71293 -6.254893,-1.55573 -2.735983,0.20978 -4.649827,1.0752 -6.525279,2.95065 -2.489092,2.48909 -3.221868,4.9744 -2.667323,9.04657 l 0.219939,1.61507 -1.71247,1.222 c -2.17423,1.5515 -3.569692,3.13895 -4.774081,5.4309 -1.769456,3.36728 -2.158846,6.59107 -1.233248,10.21012 0.689135,2.69449 1.829689,4.65028 3.95637,6.78425 1.883569,1.89003 4.686954,3.47954 7.217418,4.09225 1.085999,0.26296 7.52729,0.34347 28.876277,0.36095 24.270223,0.0199 27.66828,-0.0265 29.10417,-0.39691 z m -43.353481,-9.19157 c -6.517635,-1.66454 -9.851478,-8.76199 -6.982585,-14.8653 0.940229,-2.00025 2.694104,-3.71259 4.939081,-4.82212 1.861074,-0.91979 2.191875,-0.99639 4.303075,-0.99639 2.142009,0 2.419676,0.067 4.379347,1.05679 2.20446,1.11343 3.57628,2.3922 12.675667,11.81591 4.121605,4.26851 5.838201,5.35284 8.464487,5.34685 4.992703,-0.0114 8.793028,-5.0338 7.410458,-9.79346 -0.836657,-2.88029 -3.1359,-5.09058 -5.890266,-5.66239 -2.793815,-0.57999 -5.447535,0.38394 -7.689964,2.79328 -1.370367,1.47238 -2.230869,1.80937 -2.903257,1.13698 -0.729731,-0.72973 -0.34349,-1.62136 1.468438,-3.38983 2.892798,-2.82343 5.80562,-3.83539 9.225846,-3.20519 4.554652,0.83923 7.761183,4.09202 8.627857,8.75232 0.782463,4.20748 -1.795169,9.19707 -5.682073,10.99895 -5.653249,2.62071 -10.004084,0.77519 -17.168554,-7.2825 -4.343718,-4.88526 -7.624909,-7.99526 -9.489015,-8.99393 -1.474933,-0.79017 -1.96465,-0.91914 -3.439583,-0.90582 -2.137498,0.0193 -3.771932,0.7071 -5.291667,2.22683 -1.623936,1.62394 -2.238013,3.14849 -2.238013,5.55625 0,2.41318 0.624618,3.95984 2.227302,5.51519 1.671768,1.6224 3.226457,2.27248 5.434669,2.27248 2.401856,0 3.993992,-0.74938 5.972819,-2.81127 1.596345,-1.66336 2.625008,-1.99852 3.145999,-1.02504 0.48651,0.90906 0.30285,1.30627 -1.413214,3.05646 -2.866737,2.92373 -6.596761,4.11629 -10.086854,3.22495 z"
       id="path920"
       inkscape:connector-curvature="0" />
  </g>
</svg>
